<svg width="45" height="44" viewBox="0 0 45 44" fill="none" xmlns="http://www.w3.org/2000/svg">
<g id="clock">
<path id="Icon" fill-rule="evenodd" clip-rule="evenodd" d="M8.36334 1.30301C8.65623 1.59591 8.65623 2.07078 8.36334 2.36367L2.86334 7.86367C2.57044 8.15657 2.09557 8.15657 1.80268 7.86367C1.50978 7.57078 1.50978 7.09591 1.80268 6.80301L7.30268 1.30301C7.59557 1.01012 8.07044 1.01012 8.36334 1.30301ZM22.4997 2.91668C11.9602 2.91668 3.41634 11.4606 3.41634 22C3.41634 32.5394 11.9602 41.0833 22.4997 41.0833C33.0391 41.0833 41.583 32.5394 41.583 22C41.583 11.4606 33.0391 2.91668 22.4997 2.91668ZM22.4997 13.9167C22.9139 13.9167 23.2497 14.2525 23.2497 14.6667V21.5986L28.4157 25.0426C28.7603 25.2724 28.8535 25.7381 28.6237 26.0827C28.3939 26.4273 27.9283 26.5205 27.5836 26.2907L22.0836 22.624C21.875 22.4849 21.7497 22.2508 21.7497 22V14.6667C21.7497 14.2525 22.0855 13.9167 22.4997 13.9167ZM36.636 2.36367C36.3431 2.07078 36.3431 1.59591 36.636 1.30301C36.9289 1.01012 37.4038 1.01012 37.6967 1.30301L43.1967 6.80301C43.4896 7.09591 43.4896 7.57078 43.1967 7.86367C42.9038 8.15657 42.4289 8.15657 42.136 7.86367L36.636 2.36367Z" fill="white"/>
</g>
</svg>
