<svg width="45" height="44" viewBox="0 0 45 44" fill="none" xmlns="http://www.w3.org/2000/svg">
<g id="emotion-smile">
<path id="Icon" fill-rule="evenodd" clip-rule="evenodd" d="M3.41699 22C3.41699 11.4606 11.9609 2.91669 22.5003 2.91669C33.0398 2.91669 41.5837 11.4606 41.5837 22C41.5837 32.5395 33.0398 41.0834 22.5003 41.0834C11.9609 41.0834 3.41699 32.5395 3.41699 22ZM15.7657 27.0496C15.517 26.7184 15.0468 26.6515 14.7156 26.9003C14.3844 27.1491 14.3176 27.6192 14.5664 27.9504C16.3743 30.3574 19.2552 31.9167 22.5001 31.9167C25.7449 31.9167 28.6258 30.3574 30.4337 27.9504C30.6825 27.6192 30.6157 27.1491 30.2845 26.9003C29.9533 26.6515 29.4832 26.7184 29.2344 27.0496C27.6976 29.0956 25.2532 30.4167 22.5001 30.4167C19.7469 30.4167 17.3026 29.0956 15.7657 27.0496ZM18.8336 18.3333C18.8336 19.3458 18.0128 20.1667 17.0003 20.1667C15.9878 20.1667 15.167 19.3458 15.167 18.3333C15.167 17.3208 15.9878 16.5 17.0003 16.5C18.0128 16.5 18.8336 17.3208 18.8336 18.3333ZM28.0003 20.1667C29.0128 20.1667 29.8336 19.3458 29.8336 18.3333C29.8336 17.3208 29.0128 16.5 28.0003 16.5C26.9878 16.5 26.167 17.3208 26.167 18.3333C26.167 19.3458 26.9878 20.1667 28.0003 20.1667Z" fill="#00CC99"/>
</g>
</svg>
