<svg width="43" height="42" viewBox="0 0 43 42" fill="none" xmlns="http://www.w3.org/2000/svg">
<g id="lock-2">
<path id="Icon" fill-rule="evenodd" clip-rule="evenodd" d="M17.55 2.75L17.5179 2.75C16.7051 2.74999 16.0494 2.74999 15.5185 2.79336C14.9719 2.83803 14.4918 2.93239 14.0475 3.15873C13.3419 3.51825 12.7683 4.09193 12.4087 4.79754C12.1824 5.24175 12.088 5.7219 12.0434 6.26853C12 6.79944 12 7.45506 12 8.2679V8.3V13.25C10.9628 13.2501 10.1343 13.252 9.46173 13.307C8.74834 13.3653 8.14472 13.4869 7.59354 13.7677C6.69978 14.2231 5.97312 14.9498 5.51772 15.8435C5.23688 16.3947 5.11527 16.9983 5.05699 17.7117C4.99999 18.4094 4.99999 19.2749 5 20.367V20.4V32.1V32.133C4.99999 33.2251 4.99999 34.0906 5.05699 34.7883C5.11527 35.5017 5.23688 36.1053 5.51772 36.6565C5.97312 37.5502 6.69978 38.2769 7.59354 38.7323C8.14472 39.0131 8.74834 39.1347 9.46173 39.193C10.1594 39.25 11.0248 39.25 12.117 39.25H12.15H30.85H30.883C31.9752 39.25 32.8406 39.25 33.5383 39.193C34.2517 39.1347 34.8553 39.0131 35.4065 38.7323C36.3002 38.2769 37.0269 37.5502 37.4823 36.6565C37.7631 36.1053 37.8847 35.5017 37.943 34.7883C38 34.0906 38 33.2252 38 32.133V32.1V20.4V20.367C38 19.2748 38 18.4094 37.943 17.7117C37.8847 16.9983 37.7631 16.3947 37.4823 15.8435C37.0269 14.9498 36.3002 14.2231 35.4065 13.7677C34.8553 13.4869 34.2517 13.3653 33.5383 13.307C32.8657 13.252 32.0372 13.2501 31 13.25V8.3V8.26788C31 7.45505 31 6.79944 30.9566 6.26853C30.912 5.7219 30.8176 5.24175 30.5913 4.79754C30.2317 4.09193 29.6581 3.51825 28.9525 3.15873C28.5082 2.93239 28.0281 2.83803 27.4815 2.79336C26.9506 2.74999 26.2949 2.74999 25.4821 2.75L25.45 2.75H17.55ZM29.5 13.25V8.3C29.5 7.44755 29.4994 6.85331 29.4616 6.39068C29.4245 5.9368 29.3554 5.67604 29.2548 5.47852C29.039 5.05516 28.6948 4.71095 28.2715 4.49524C28.074 4.3946 27.8132 4.32547 27.3593 4.28838C26.8967 4.25058 26.3025 4.25 25.45 4.25H17.55C16.6975 4.25 16.1033 4.25058 15.6407 4.28838C15.1868 4.32547 14.926 4.3946 14.7285 4.49524C14.3052 4.71095 13.961 5.05516 13.7452 5.47852C13.6446 5.67604 13.5755 5.9368 13.5384 6.39068C13.5006 6.85331 13.5 7.44755 13.5 8.3V13.25H29.5ZM22.25 24.5C22.25 24.0858 21.9142 23.75 21.5 23.75C21.0858 23.75 20.75 24.0858 20.75 24.5V28C20.75 28.4142 21.0858 28.75 21.5 28.75C21.9142 28.75 22.25 28.4142 22.25 28V24.5Z" fill="#00CC99"/>
</g>
</svg>
